# xmcd
#
# Track frame offsets:
#	150
#	14572
#	31427
#	47337
#	63970
#	77470
#	99370
#	111620
#	130185
#	147035
#	163305
#	191580
#
# Disc length: 2747 seconds
#
# Revision: 0
# Processed by: cddbd v1.4PL0 Copyright (c) Steve Scherf et al.
# Submitted via: EasyCDDAExtractor 4.6.0.1
#
DISCID=9d0ab90c
DTITLE=Fathead - Blues Weather
DYEAR=1998
DGENRE=Blues
TTITLE0=Blues Weather
TTITLE1=The backbug song
TTITLE2=Monkey time
TTITLE3=Tell me why
TTITLE4=Real crazy mama
TTITLE5=Doot do doot
TTITLE6=Song for the nation
TTITLE7=Let's have a party
TTITLE8=Hurry now
TTITLE9=Gypsy feet
TTITLE10=You can't always get what you want
TTITLE11=Steak and Potatoes
EXTD=
EXTT0=
EXTT1=
EXTT2=
EXTT3=
EXTT4=
EXTT5=
EXTT6=
EXTT7=
EXTT8=
EXTT9=
EXTT10=
EXTT11=
PLAYORDER=
